<?xml version="1.0" encoding="utf-8"?>
<!-- Generator: Adobe Illustrator 23.0.4, SVG Export Plug-In . SVG Version: 6.00 Build 0)  -->
<svg version="1.1" id="Layer_1" xmlns="http://www.w3.org/2000/svg" xmlns:xlink="http://www.w3.org/1999/xlink" x="0px" y="0px"
	 viewBox="0 0 100 135" style="enable-background:new 0 0 100 135;" xml:space="preserve">
<style type="text/css">
	.st0{opacity:0.8;fill:#FFFFFF;}
	.st1{fill:#414042;}
</style>
<polygon class="st0" points="0,0 0,135 100,135 100,20.5 79.5,0 "/>
<g>
	<polygon class="st1" points="79.5,0 79.5,20.5 100,20.5 	"/>
	<polygon class="st1" points="58.4,69 65.1,74.1 57.4,74.4 55.9,78.7 44.1,78.7 42.6,74.4 34.9,74.1 41.6,69 37,69 29.6,74.1 
		33.7,84.7 66.3,84.7 70.4,74.1 63,69 	"/>
	<polygon class="st1" points="46,70.3 54,70.3 54,60.1 61.1,60.1 50,49 38.9,60.1 46,60.1 	"/>
</g>
</svg>
