<?xml version="1.0" encoding="utf-8"?>
<!-- Generator: Adobe Illustrator 23.0.4, SVG Export Plug-In . SVG Version: 6.00 Build 0)  -->
<svg version="1.1" id="Layer_1" xmlns="http://www.w3.org/2000/svg" xmlns:xlink="http://www.w3.org/1999/xlink" x="0px" y="0px"
	 viewBox="0 0 107.8 92.5" style="enable-background:new 0 0 107.8 92.5;" xml:space="preserve">
<path d="M16.3,92.5c3-15.3,13.6-27.5,27.1-31.7c-7-3.7-11.8-11.1-11.8-19.6c0-12.3,10-22.2,22.2-22.2c12.3,0,22.2,10,22.2,22.2
	c0,8.5-4.8,15.9-11.8,19.6c13.6,4.2,24.1,16.4,27.1,31.7c10-9.8,16.3-23.5,16.3-38.6C107.8,24.1,83.6,0,53.9,0S0,24.1,0,53.9
	C0,69,6.2,82.7,16.3,92.5z"/>
</svg>
