<?xml version="1.0" encoding="utf-8"?>
<!-- Generator: Adobe Illustrator 23.0.4, SVG Export Plug-In . SVG Version: 6.00 Build 0)  -->
<svg version="1.1" id="Layer_1" xmlns="http://www.w3.org/2000/svg" xmlns:xlink="http://www.w3.org/1999/xlink" x="0px" y="0px"
	 viewBox="0 0 125.5 125.5" style="enable-background:new 0 0 125.5 125.5;" xml:space="preserve">
<style type="text/css">
	.st0{fill:none;stroke:#C4BFC2;stroke-width:6;stroke-miterlimit:10;}
	.st1{fill:#C4BFC2;}
</style>
<g>
	<circle class="st0" cx="62.7" cy="43" r="25"/>
	<path class="st0" d="M52.8,56.1c0-5.5,4.4-9.9,9.9-9.9s9.9,4.4,9.9,9.9"/>
	<path class="st0" d="M105,125.5v-15.2C105,86.9,86,68,62.7,68s-42.3,19-42.3,42.3v15.2"/>
</g>
<g>
	<path class="st1" d="M54.9,30.6c-2,0-3.7,1.7-3.7,3.7c0,2,1.7,3.7,3.7,3.7c2,0,3.7-1.7,3.7-3.7C58.6,32.3,57,30.6,54.9,30.6z"/>
	<circle class="st1" cx="70.6" cy="34.4" r="3.7"/>
</g>
</svg>
