<?xml version="1.0" encoding="utf-8"?>
<!-- Generator: Adobe Illustrator 16.2.1, SVG Export Plug-In . SVG Version: 6.00 Build 0)  -->
<!DOCTYPE svg PUBLIC "-//W3C//DTD SVG 1.1//EN" "http://www.w3.org/Graphics/SVG/1.1/DTD/svg11.dtd">
<svg version="1.1" id="Layer_1" xmlns="http://www.w3.org/2000/svg" xmlns:xlink="http://www.w3.org/1999/xlink" x="0px" y="0px"
	 width="1292.3px" height="1300px" viewBox="68.2 134 1292.3 1300" enable-background="new 68.2 134 1292.3 1300"
	 xml:space="preserve">
<polygon fill="#BBBDC0" points="1360.5,295.6 811.1,225.472 811.1,134 68.2,134 68.2,1433.9 811.1,1433.9 811.1,1393.927 
	1360.5,1434 "/>
<g>
	<g>
		<g>
			<path fill="#BFFFF8" d="M790.8,833.8V154.3H88.4v692.8C403.3,675.9,681.2,778.5,790.8,833.8z"/>
			<g>
				<path fill="#79BA6A" d="M397.1,1214.2c-138.6,17.6-244.8,70.1-308.7,110.3v89.2h189.3l81-89.2L397.1,1214.2z"/>
				<path fill="#79BA6A" d="M515.6,1208.6l26.7,116l109.3,89.2h139.2v-148.6C691.5,1227.4,599.3,1211.1,515.6,1208.6z"/>
			</g>
			<path fill="#87CF76" d="M402.3,1213.6c-1.7,0.2-3.399,0.4-5.1,0.601l-38.4,110.3l-81,89.2h18.1l70.6-86.101L402.3,1213.6z"/>
			<g>
				<path fill="#659C58" d="M542.3,1324.6l-26.7-116c-3-0.1-6-0.1-8.899-0.199l25.8,118.699L629,1413.7h22.6L542.3,1324.6z"/>
				<path fill="#70AB61" d="M506.7,1208.4c-36.5-0.7-71.4,1.3-104.4,5.3l-35.8,114l-70.6,86.1H629l-96.5-86.6L506.7,1208.4z"/>
			</g>
			<g>
				<path fill="#00845B" d="M443.8,1017.2l-7-66.9c-140.3-25.5-271.9-19.7-348.3-12.2v386.5c66.8-42,179.9-97.6,327.8-112.5
					l-26.5-110.5L443.8,1017.2z"/>
				<path fill="#00845B" d="M790.8,1106.2c-93.3-78.8-205.2-123.601-314.6-148l14.1,69.1l-35.1,78.9l39.7,102
					c89,0.3,188.3,16.1,295.8,56.899V1106.2H790.8z"/>
			</g>
			<g>
				<path fill="#006143" d="M453.9,1106.2l35.699,102c1.801,0,3.601-0.101,5.4-0.101l-39.7-102L490.4,1027.2L476.3,958.1l10.4,68.4
					L453.9,1106.2z"/>
				<path fill="#007551" d="M453.9,1106.2L486.6,1026.6L476.2,958.2c-13.2-3-26.4-5.601-39.5-8l7,66.899l-49.3,85l26.6,109.4
					c22.1-2.1,44.9-3.2,68.5-3.3L453.9,1106.2z"/>
				<path fill="#006143" d="M443.8,1017.2l-54,84.3l26.5,110.5c1.601-0.2,3.2-0.3,4.8-0.4L394.5,1102.2L443.8,1017.2z"/>
			</g>
			<path fill="#5CB057" d="M790.8,833.8C755.2,815.9,701.9,793,635.3,776l-54.5,55.1l15.4,59.9l-62.4,82
				c90.4,26.4,180,68.2,256.9,133.2V833.8H790.8z"/>
			<g>
				<path fill="#5CB057" d="M550.9,824.3l61.8-53.7C475.9,740.2,289.8,737.7,88.4,847.1v91c86.1-8.5,242.1-14.8,401.9,23.4
					l72.8-78.2L550.9,824.3z"/>
				<path fill="#68C462" d="M612.7,770.6l-61.8,53.7l12.1,59l-72.8,78.2c1.1,0.3,2.3,0.5,3.399,0.8L565.7,883.9l-13.4-57l60.9-56.2
					C613.1,770.7,612.9,770.6,612.7,770.6z"/>
			</g>
			<g>
				<path fill="#519C4C" d="M578.2,832.3L635,775.9c-7.1-1.801-14.3-3.5-21.6-5.2l-60.9,56.2l13.4,57L493.8,962.3
					c12.3,3,24.7,6.3,37,9.8L595,891L578.2,832.3z"/>
				<path fill="#4A8C45" d="M634.9,775.9L578.1,832.3L594.9,891l-64.2,81.1c1.1,0.301,2.2,0.601,3.2,0.9l62.399-82L580.9,831.1
					l54.5-55.1C635.2,776,635.1,775.9,634.9,775.9z"/>
			</g>
			<path fill="#519C4C" d="M361.5,856.8c0-5.3-4.3-9.7-9.7-9.7H323c-5.3,0-9.7,4.301-9.7,9.7l0,0c0,5.3,4.3,9.7,9.7,9.7h28.8
				C357.1,866.4,361.5,862.1,361.5,856.8L361.5,856.8z"/>
			<path fill="#519C4C" d="M480.3,781.4c0-3.9-3.2-7.101-7.1-7.101H452.1c-3.899,0-7.1,3.2-7.1,7.101l0,0c0,3.899,3.2,7.1,7.1,7.1
				H473.2C477.2,788.4,480.3,785.3,480.3,781.4L480.3,781.4z"/>
			<g>
				<rect x="327" y="796.2" fill="#604E32" width="18.5" height="59.899"/>
				<g>
					<path fill="#007551" d="M336,625.7v176.6C426.6,802.4,336,625.7,336,625.7z"/>
					<path fill="#00845B" d="M336,802.4V625.7C336,625.7,245.3,802.4,336,802.4z"/>
				</g>
				<path fill="#007551" d="M311,784.7c0-2.101,1.7-3.8,3.8-3.8h10.5c2.1,0,3.8,1.699,3.8,3.8l0,0c0,2.1-1.7,3.8-3.8,3.8h-10.5
					C312.7,788.4,311,786.7,311,784.7L311,784.7z"/>
				<path fill="#007551" d="M311,763.2c0-2.101,1.7-3.8,3.8-3.8h10.5c2.1,0,3.8,1.699,3.8,3.8l0,0c0,2.1-1.7,3.8-3.8,3.8h-10.5
					C312.7,767,311,765.3,311,763.2L311,763.2z"/>
				<path fill="#007551" d="M311,741.7c0-2.101,1.7-3.8,3.8-3.8h10.5c2.1,0,3.8,1.699,3.8,3.8l0,0c0,2.1-1.7,3.8-3.8,3.8h-10.5
					C312.7,745.5,311,743.8,311,741.7L311,741.7z"/>
				<path fill="#007551" d="M311,720.2c0-2.101,1.7-3.8,3.8-3.8h10.5c2.1,0,3.8,1.699,3.8,3.8l0,0c0,2.1-1.7,3.8-3.8,3.8h-10.5
					C312.7,724,311,722.3,311,720.2L311,720.2z"/>
			</g>
			<path fill="#519C4C" d="M720,956.8c0-5.899-4.8-10.6-10.6-10.6h-31.7c-5.9,0-10.601,4.8-10.601,10.6l0,0
				c0,5.9,4.801,10.601,10.601,10.601h31.7C715.3,967.5,720,962.7,720,956.8L720,956.8z"/>
			<g>
				<rect x="682" y="890.1" fill="#604E32" width="20.4" height="66"/>
				<g>
					<path fill="#007551" d="M691.9,702.4v194.5C791.8,896.9,691.9,702.4,691.9,702.4z"/>
					<path fill="#00845B" d="M691.9,896.9V702.4C691.9,702.4,592,896.9,691.9,896.9z"/>
				</g>
				<path fill="#007551" d="M664.5,877.4c0-2.301,1.9-4.2,4.2-4.2h11.6c2.3,0,4.2,1.899,4.2,4.2l0,0c0,2.3-1.9,4.199-4.2,4.199
					h-11.6C666.3,881.6,664.5,879.7,664.5,877.4L664.5,877.4z"/>
				<path fill="#007551" d="M664.5,853.7c0-2.3,1.9-4.2,4.2-4.2h11.6c2.3,0,4.2,1.9,4.2,4.2l0,0c0,2.3-1.9,4.2-4.2,4.2h-11.6
					C666.3,857.9,664.5,856,664.5,853.7L664.5,853.7z"/>
				<path fill="#007551" d="M664.5,830.1c0-2.3,1.9-4.199,4.2-4.199h11.6c2.3,0,4.2,1.899,4.2,4.199l0,0c0,2.301-1.9,4.2-4.2,4.2
					h-11.6C666.3,834.2,664.5,832.4,664.5,830.1L664.5,830.1z"/>
				<path fill="#007551" d="M664.5,806.4c0-2.301,1.9-4.2,4.2-4.2h11.6c2.3,0,4.2,1.899,4.2,4.2l0,0c0,2.3-1.9,4.199-4.2,4.199
					h-11.6C666.3,810.6,664.5,808.7,664.5,806.4L664.5,806.4z"/>
			</g>
			<g>
				<rect x="454.5" y="728.3" fill="#604E32" width="16.4" height="53.101"/>
				<g>
					<path fill="#007551" d="M462.5,577.2v156.5C542.9,733.7,462.5,577.2,462.5,577.2z"/>
					<path fill="#00845B" d="M462.5,733.7V577.2C462.5,577.2,382.1,733.7,462.5,733.7z"/>
				</g>
				<path fill="#007551" d="M440.4,718c0-1.9,1.5-3.4,3.3-3.4h9.3c1.8,0,3.3,1.5,3.3,3.4l0,0c0,1.8-1.5,3.3-3.3,3.3h-9.3
					C441.9,721.4,440.4,719.9,440.4,718L440.4,718z"/>
				<path fill="#007551" d="M440.4,699c0-1.9,1.5-3.3,3.3-3.3h9.3c1.8,0,3.3,1.5,3.3,3.3l0,0c0,1.9-1.5,3.3-3.3,3.3h-9.3
					C441.9,702.4,440.4,700.9,440.4,699L440.4,699z"/>
				<path fill="#007551" d="M440.4,680c0-1.9,1.5-3.3,3.3-3.3h9.3c1.8,0,3.3,1.5,3.3,3.3l0,0c0,1.9-1.5,3.3-3.3,3.3h-9.3
					C441.9,683.3,440.4,681.8,440.4,680L440.4,680z"/>
				<path fill="#007551" d="M440.4,660.9c0-1.801,1.5-3.301,3.3-3.301h9.3c1.8,0,3.3,1.5,3.3,3.301l0,0c0,1.899-1.5,3.3-3.3,3.3
					h-9.3C441.9,664.3,440.4,662.8,440.4,660.9L440.4,660.9z"/>
			</g>
			<path fill="#519C4C" d="M202.7,863.7c0-2.8-2.3-5.101-5.1-5.101h-15.2c-2.8,0-5.1,2.301-5.1,5.101l0,0c0,2.8,2.3,5.1,5.1,5.1
				h15.2C200.4,868.8,202.7,866.5,202.7,863.7L202.7,863.7z"/>
			<g>
				<rect x="184.1" y="825.4" fill="#604E32" width="11.8" height="38.3"/>
				<g>
					<path fill="#007551" d="M189.9,716.4V829.3C247.8,829.3,189.9,716.4,189.9,716.4z"/>
					<path fill="#00845B" d="M189.9,829.3V716.4C189.9,716.4,131.9,829.3,189.9,829.3z"/>
				</g>
				<path fill="#007551" d="M173.9,818c0-1.3,1.1-2.4,2.4-2.4h6.7c1.3,0,2.4,1.101,2.4,2.4l0,0c0,1.3-1.1,2.4-2.4,2.4h-6.7
					C175,820.4,173.9,819.4,173.9,818L173.9,818z"/>
				<path fill="#007551" d="M173.9,804.3c0-1.3,1.1-2.399,2.4-2.399h6.7c1.3,0,2.4,1.1,2.4,2.399l0,0c0,1.3-1.1,2.4-2.4,2.4h-6.7
					C175,806.7,173.9,805.6,173.9,804.3L173.9,804.3z"/>
				<path fill="#007551" d="M173.9,790.6c0-1.3,1.1-2.399,2.4-2.399h6.7c1.3,0,2.4,1.1,2.4,2.399l0,0c0,1.301-1.1,2.4-2.4,2.4h-6.7
					C175,793,173.9,791.9,173.9,790.6L173.9,790.6z"/>
				<path fill="#007551" d="M173.9,776.8c0-1.3,1.1-2.399,2.4-2.399h6.7c1.3,0,2.4,1.1,2.4,2.399l0,0c0,1.3-1.1,2.4-2.4,2.4h-6.7
					C175,779.2,173.9,778.2,173.9,776.8L173.9,776.8z"/>
			</g>
			<g>
				<path fill="#007551" d="M726.9,1166.7c0-4.4-3.601-8-8-8H695c-4.4,0-8,3.6-8,8l0,0c0,4.399,3.6,8,8,8h23.9
					C723.3,1174.7,726.9,1171.1,726.9,1166.7L726.9,1166.7z"/>
				<rect x="697.7" y="1108.2" fill="#604E32" width="18.399" height="57.1"/>
				<g>
					<path fill="#79BA6A" d="M674.4,1038.5v48.2c0,18,14.6,32.5,32.5,32.5V1006C689,1006,674.4,1020.6,674.4,1038.5z"/>
					<path fill="#69A15B" d="M706.9,1006v113.3c18,0,32.5-14.6,32.5-32.5v-48.2C739.4,1020.6,724.9,1006,706.9,1006z"/>
				</g>
				<path fill="#69A15B" d="M700.5,1043.9c0,2.199-1.8,4-4,4h-10.8c-2.2,0-4-1.801-4-4l0,0c0-2.2,1.8-4,4-4h10.8
					C698.8,1039.9,700.5,1041.7,700.5,1043.9L700.5,1043.9z"/>
				<path fill="#69A15B" d="M700.5,1060.9c0,2.199-1.8,4-4,4h-10.8c-2.2,0-4-1.801-4-4l0,0c0-2.2,1.8-4,4-4h10.8
					C698.8,1056.9,700.5,1058.7,700.5,1060.9L700.5,1060.9z"/>
				<path fill="#69A15B" d="M700.5,1077.9c0,2.199-1.8,4-4,4h-10.8c-2.2,0-4-1.801-4-4l0,0c0-2.2,1.8-4,4-4h10.8
					C698.8,1073.9,700.5,1075.6,700.5,1077.9L700.5,1077.9z"/>
			</g>
			<g>
				<path fill="#007551" d="M422.2,1008c0-4.4-3.601-8-8-8h-23.9c-4.4,0-8,3.6-8,8l0,0c0,4.4,3.6,8,8,8h23.9
					C418.7,1016,422.2,1012.4,422.2,1008L422.2,1008z"/>
				<rect x="393.1" y="949.6" fill="#604E32" width="18.4" height="57.101"/>
				<g>
					<path fill="#79BA6A" d="M369.8,879.9V928.1c0,18,14.6,32.5,32.5,32.5V847.3C384.3,847.3,369.8,861.9,369.8,879.9z"/>
					<path fill="#69A15B" d="M402.3,847.3v113.3c18,0,32.5-14.6,32.5-32.5V879.9C434.8,861.9,420.2,847.3,402.3,847.3z"/>
				</g>
				<path fill="#69A15B" d="M395.9,885.3c0,2.2-1.8,4-4,4h-10.8c-2.2,0-4-1.8-4-4l0,0c0-2.2,1.8-4,4-4h10.8
					C394.1,881.3,395.9,883.1,395.9,885.3L395.9,885.3z"/>
				<path fill="#69A15B" d="M395.9,902.2c0,2.2-1.8,4-4,4h-10.8c-2.2,0-4-1.8-4-4l0,0c0-2.2,1.8-4,4-4h10.8
					C394.1,898.2,395.9,900,395.9,902.2L395.9,902.2z"/>
				<path fill="#69A15B" d="M395.9,919.2c0,2.2-1.8,4-4,4h-10.8c-2.2,0-4-1.8-4-4l0,0c0-2.2,1.8-4,4-4h10.8
					C394.1,915.2,395.9,917,395.9,919.2L395.9,919.2z"/>
			</g>
			<g>
				<path fill="#007551" d="M637.6,1016.2c0-3.2-2.6-5.8-5.8-5.8H614.4c-3.2,0-5.801,2.6-5.801,5.8l0,0c0,3.2,2.601,5.8,5.801,5.8
					H631.8C635,1022.1,637.6,1019.5,637.6,1016.2L637.6,1016.2z"/>
				<rect x="616.3" y="973.6" fill="#604E32" width="13.4" height="41.601"/>
				<g>
					<path fill="#79BA6A" d="M599.3,922.8V958c0,13.1,10.601,23.7,23.7,23.7V899.1C610,899.1,599.3,909.7,599.3,922.8z"/>
					<path fill="#69A15B" d="M623,899.1V981.7c13.1,0,23.7-10.601,23.7-23.7v-35.2C646.7,909.7,636.1,899.1,623,899.1z"/>
				</g>
				<path fill="#69A15B" d="M618.4,926.8c0,1.601-1.301,2.9-2.9,2.9h-7.9c-1.6,0-2.899-1.3-2.899-2.9l0,0
					c0-1.6,1.3-2.899,2.899-2.899h7.9C617.1,923.9,618.4,925.2,618.4,926.8L618.4,926.8z"/>
				<path fill="#69A15B" d="M618.4,939.1c0,1.601-1.301,2.9-2.9,2.9h-7.9c-1.6,0-2.899-1.3-2.899-2.9l0,0
					c0-1.6,1.3-2.899,2.899-2.899h7.9C617.1,936.2,618.4,937.5,618.4,939.1L618.4,939.1z"/>
				<path fill="#69A15B" d="M618.4,951.5c0,1.6-1.301,2.9-2.9,2.9h-7.9c-1.6,0-2.899-1.301-2.899-2.9l0,0c0-1.6,1.3-2.9,2.899-2.9
					h7.9C617.1,948.6,618.4,949.9,618.4,951.5L618.4,951.5z"/>
			</g>
			<g>
				<path fill="#007551" d="M301.8,1098.1c0-5.699-4.6-10.3-10.3-10.3h-30.9c-5.7,0-10.3,4.601-10.3,10.3l0,0
					c0,5.7,4.6,10.301,10.3,10.301h30.9C297.2,1108.4,301.8,1103.8,301.8,1098.1L301.8,1098.1z"/>
				<rect x="264.2" y="1022.7" fill="#604E32" width="23.7" height="73.6"/>
				<g>
					<path fill="#79BA6A" d="M234.1,932.8V995c0,23.2,18.8,41.9,41.9,41.9v-146C252.9,890.9,234.1,909.7,234.1,932.8z"/>
					<path fill="#69A15B" d="M276.1,890.9V1037c23.2,0,41.9-18.8,41.9-41.9V932.9C318,909.7,299.2,890.9,276.1,890.9z"/>
				</g>
				<path fill="#69A15B" d="M267.9,939.8c0,2.9-2.3,5.2-5.2,5.2h-14c-2.9,0-5.2-2.3-5.2-5.2l0,0c0-2.899,2.3-5.2,5.2-5.2h14
					C265.5,934.6,267.9,937,267.9,939.8L267.9,939.8z"/>
				<path fill="#69A15B" d="M267.9,961.7c0,2.899-2.3,5.2-5.2,5.2h-14c-2.9,0-5.2-2.301-5.2-5.2l0,0c0-2.9,2.3-5.2,5.2-5.2h14
					C265.5,956.5,267.9,958.8,267.9,961.7L267.9,961.7z"/>
				<path fill="#69A15B" d="M267.9,983.6c0,2.9-2.3,5.2-5.2,5.2h-14c-2.9,0-5.2-2.3-5.2-5.2l0,0c0-2.899,2.3-5.199,5.2-5.199h14
					C265.5,978.4,267.9,980.7,267.9,983.6L267.9,983.6z"/>
			</g>
			<g>
				<path fill="#659C58" d="M245.4,1350.5c0-6.6-5.3-11.9-11.9-11.9h-35.7c-6.6,0-11.9,5.301-11.9,11.9l0,0
					c0,6.6,5.3,11.9,11.9,11.9h35.7C240,1362.5,245.4,1357.1,245.4,1350.5L245.4,1350.5z"/>
				<rect x="201.9" y="1263.4" fill="#604E32" width="27.4" height="85.1"/>
				<g>
					<path fill="#5CB057" d="M142,1201.7c0,40.7,33,73.6,73.6,73.6v-147.2C175,1128.1,142,1161.1,142,1201.7z"/>
					<path fill="#4A8C45" d="M215.6,1128.1v147.2c40.6,0,73.6-33,73.6-73.6C289.2,1161.1,256.3,1128.1,215.6,1128.1z"/>
				</g>
				<path fill="#4A8C45" d="M204.1,1231.3c0-3.1-2.5-5.6-5.6-5.6h-29.4c-3.1,0-5.6,2.5-5.6,5.6l0,0c0,3.101,2.5,5.601,5.6,5.601
					h29.4C201.7,1236.9,204.1,1234.4,204.1,1231.3L204.1,1231.3z"/>
				<path fill="#4A8C45" d="M204.1,1205.6c0-3.1-2.5-5.6-5.6-5.6h-29.4c-3.1,0-5.6,2.5-5.6,5.6l0,0c0,3.101,2.5,5.601,5.6,5.601
					h29.4C201.7,1211.2,204.1,1208.7,204.1,1205.6L204.1,1205.6z"/>
				<path fill="#4A8C45" d="M204.1,1180c0-3.1-2.5-5.6-5.6-5.6h-29.4c-3.1,0-5.6,2.5-5.6,5.6l0,0c0,3.1,2.5,5.6,5.6,5.6h29.4
					C201.7,1185.6,204.1,1183.1,204.1,1180L204.1,1180z"/>
			</g>
			<g>
				<path fill="#659C58" d="M372.6,1235.1c0-3.399-2.8-6.199-6.2-6.199h-18.7c-3.4,0-6.2,2.8-6.2,6.199l0,0c0,3.4,2.8,6.2,6.2,6.2
					h18.7C369.8,1241.4,372.6,1238.6,372.6,1235.1L372.6,1235.1z"/>
				<rect x="349.8" y="1189.5" fill="#604E32" width="14.4" height="44.6"/>
				<g>
					<path fill="#5CB057" d="M318.4,1157.2c0,21.3,17.3,38.6,38.6,38.6v-77.1C335.7,1118.6,318.4,1135.9,318.4,1157.2z"/>
					<path fill="#4A8C45" d="M357,1118.6v77.101c21.3,0,38.6-17.3,38.6-38.601C395.5,1135.9,378.3,1118.6,357,1118.6z"/>
				</g>
				<path fill="#4A8C45" d="M351,1172.7c0-1.601-1.3-2.9-2.9-2.9h-15.4c-1.6,0-2.9,1.3-2.9,2.9l0,0c0,1.6,1.3,2.899,2.9,2.899h15.4
					C349.7,1175.6,351,1174.3,351,1172.7L351,1172.7z"/>
				<path fill="#4A8C45" d="M351,1159.2c0-1.601-1.3-2.9-2.9-2.9h-15.4c-1.6,0-2.9,1.3-2.9,2.9l0,0c0,1.6,1.3,2.899,2.9,2.899h15.4
					C349.7,1162.2,351,1160.8,351,1159.2L351,1159.2z"/>
				<path fill="#4A8C45" d="M351,1145.8c0-1.6-1.3-2.899-2.9-2.899h-15.4c-1.6,0-2.9,1.3-2.9,2.899l0,0c0,1.601,1.3,2.9,2.9,2.9
					h15.4C349.7,1148.7,351,1147.4,351,1145.8L351,1145.8z"/>
			</g>
			<g>
				<path fill="#659C58" d="M619,1296.3c0-6.6-5.3-11.899-11.9-11.899H571.4c-6.601,0-11.9,5.3-11.9,11.899l0,0
					c0,6.601,5.3,11.9,11.9,11.9H607.1C613.6,1308.2,619,1302.9,619,1296.3L619,1296.3z"/>
				<rect x="575.5" y="1209.1" fill="#604E32" width="27.4" height="85.101"/>
				<g>
					<path fill="#5CB057" d="M515.6,1147.5c0,40.7,33,73.6,73.601,73.6V1073.9C548.6,1073.9,515.6,1106.8,515.6,1147.5z"/>
					<path fill="#4A8C45" d="M589.2,1073.9V1221.1c40.6,0,73.6-33,73.6-73.6C662.8,1106.8,629.9,1073.9,589.2,1073.9z"/>
				</g>
				<path fill="#4A8C45" d="M577.7,1177c0-3.1-2.5-5.6-5.601-5.6H542.7c-3.101,0-5.601,2.5-5.601,5.6l0,0c0,3.1,2.5,5.6,5.601,5.6
					H572.1C575.2,1182.6,577.7,1180.1,577.7,1177L577.7,1177z"/>
				<path fill="#4A8C45" d="M577.7,1151.4c0-3.101-2.5-5.601-5.601-5.601H542.7c-3.101,0-5.601,2.5-5.601,5.601l0,0
					c0,3.1,2.5,5.6,5.601,5.6H572.1C575.2,1156.9,577.7,1154.5,577.7,1151.4L577.7,1151.4z"/>
				<path fill="#4A8C45" d="M577.7,1125.7c0-3.101-2.5-5.601-5.601-5.601H542.7c-3.101,0-5.601,2.5-5.601,5.601l0,0
					c0,3.1,2.5,5.6,5.601,5.6H572.1C575.2,1131.3,577.7,1128.8,577.7,1125.7L577.7,1125.7z"/>
			</g>
		</g>
		<path fill="#FFFFFF" d="M203.5,419.2H228c1.1-12.7,11.7-22.8,24.7-22.8c0.3,0,0.6,0.1,0.9,0.1c3.9-18.7,20.5-32.7,40.3-32.7
			c22.8,0,41.2,18.5,41.2,41.2c0,22.8-18.4,41.2-41.2,41.2h-90.4c-7.5,0-13.5-6.101-13.5-13.5C190,425.3,196.1,419.2,203.5,419.2z"
			/>
		<path fill="#FFFFFF" d="M458.8,266.7H506.9c0-22.7,18.399-41.1,41.1-41.1s41.1,18.4,41.1,41.1h16.7c11.3,0,20.5,9.2,20.5,20.5
			h33.9c11.3,0,20.5,9.2,20.5,20.5c0,11.3-9.2,20.5-20.5,20.5h-147c-11.3,0-20.5-9.2-20.5-20.5l0,0h-33.9
			c-11.3,0-20.5-9.2-20.5-20.5C438.2,275.9,447.4,266.7,458.8,266.7z"/>
		<path fill="#FFFFFF" d="M679.4,605.7H668.6c0.101-0.7,0.2-1.4,0.2-2.101c0-7.3-5.899-13.3-13.3-13.3h-3.7
			c-3.2-10.2-12.7-17.7-24-17.7s-20.8,7.4-24,17.7h-3.7c-0.8,0-1.6,0.101-2.399,0.2c-3.3-7.6-10.9-12.9-19.7-12.9
			c-11.9,0-21.5,9.601-21.5,21.5c0,2.301,0.4,4.5,1,6.5h-10.2c-8.3,0-15,6.7-15,15c0,8.301,6.7,15,15,15H679.4c8.3,0,15-6.699,15-15
			C694.4,612.4,687.7,605.7,679.4,605.7z"/>
		<path fill="#FFFFFF" d="M274,569.7h-9c0-20.5-16.6-37.2-37.2-37.2c-20.5,0-37.2,16.6-37.2,37.2H158c-12.7,0-23,10.3-23,23
			s10.3,23,23,23h116c12.7,0,23-10.3,23-23S286.7,569.7,274,569.7z"/>
		<path fill="#FFFFFF" d="M516.7,482.1h-4.2c0-9.6-7.8-17.399-17.4-17.399c-9.6,0-17.399,7.8-17.399,17.399h-15.3
			c-6,0-10.801,4.801-10.801,10.801s4.801,10.8,10.801,10.8h54.3c6,0,10.8-4.8,10.8-10.8S522.7,482.1,516.7,482.1z"/>
	</g>
	<g>
		<g>
			<path fill="#5C4723" d="M88.4,154.3v1259.5h702.4V154.3H88.4z M730.3,1353.2H149V214.8h581.3V1353.2z"/>
		</g>
		<rect x="730.3" y="214.8" fill="#70572B" width="581.3" height="1138.4"/>
		<g>
			<g>
				<rect x="1037.3" y="269.3" fill="#664F27" width="225.3" height="497.5"/>
				<polygon fill="#5C4723" points="1262.6,269.3 1063.6,269.3 1037.3,269.3 1037.3,295.1 1037.3,766.8 1063.6,750.2 1063.6,295.1 
					1247.4,295.1 				"/>
			</g>
			<polygon fill="#7A5F2F" points="1247.4,766.8 1262.6,766.8 1262.6,269.3 1247.4,295.1 			"/>
			<polygon fill="#7A5F2F" points="1063.5,750.2 1262.6,750.2 1262.6,766.8 1037.3,766.8 			"/>
		</g>
		<g>
			<g>
				<rect x="779.2" y="269.3" fill="#664F27" width="225.3" height="497.5"/>
				<polygon fill="#5C4723" points="1004.5,269.3 805.5,269.3 779.2,269.3 779.2,295.1 779.2,766.8 805.5,750.2 805.5,295.1 
					989.4,295.1 				"/>
			</g>
			<polygon fill="#7A5F2F" points="989.4,766.8 1004.5,766.8 1004.5,269.3 989.4,295.1 			"/>
			<polygon fill="#7A5F2F" points="805.4,750.2 1004.5,750.2 1004.5,766.8 779.2,766.8 			"/>
		</g>
		<g>
			<g>
				<rect x="779.2" y="800.5" fill="#664F27" width="483.399" height="497.5"/>
				<polygon fill="#5C4723" points="1262.6,800.5 805.5,800.5 779.2,800.5 779.2,826.3 779.2,1298 805.5,1281.4 805.5,826.3 
					1247.4,826.3 				"/>
			</g>
			<polygon fill="#7A5F2F" points="1247.4,1298 1262.6,1298 1262.6,800.5 1247.4,826.3 			"/>
			<polygon fill="#7A5F2F" points="805.4,1281.4 1262.6,1281.4 1262.6,1298 779.2,1298 			"/>
		</g>
		<path fill="#FFD963" d="M1295.9,775.6c0,18.4-14.9,33.301-33.301,33.301c-18.399,0-33.3-14.9-33.3-33.301
			c0-18.399,14.9-33.3,33.3-33.3C1281,742.3,1295.9,757.2,1295.9,775.6z"/>
		<path fill="#FFE496" d="M1284.8,789.4c0,6.1-5,11.1-11.1,11.1c-6.101,0-11.101-5-11.101-11.1c0-6.101,5-11.101,11.101-11.101
			C1279.8,778.3,1284.8,783.3,1284.8,789.4z"/>
		<rect x="149" y="214.8" fill="#70572B" width="22.7" height="1138.4"/>
		<rect x="149" y="1334.8" fill="#70572B" width="581.3" height="18.4"/>
	</g>
</g>
</svg>
