<?xml version="1.0" encoding="utf-8"?>
<!-- Generator: Adobe Illustrator 23.0.4, SVG Export Plug-In . SVG Version: 6.00 Build 0)  -->
<svg version="1.1" id="Layer_1" xmlns="http://www.w3.org/2000/svg" xmlns:xlink="http://www.w3.org/1999/xlink" x="0px" y="0px"
	 viewBox="0 0 154.6 45.2" style="enable-background:new 0 0 154.6 45.2;" xml:space="preserve">
<style type="text/css">
	.st0{fill:#FFFFFF;}
	.st1{fill:#EC008C;}
</style>
<path class="st0" d="M152,14.8c-1.1,0.4-2.2,0.7-3.5,0.7c-5.2,0-9.4-4.2-9.4-9.4c0-0.6,0.1-1.3,0.2-1.9c-1.9-0.6-3.9-0.9-6-0.9
	c-11.6,0-20.9,9.4-20.9,20.9c0,11.6,9.4,20.9,20.9,20.9c11.6,0,20.9-9.4,20.9-20.9C154.3,20.9,153.5,17.7,152,14.8z M133.5,36
	c-4.4,0-6.7-2.5-7.6-3.9c-0.8-1.2-2-4.1-2-7.9c0-5.8,2.5-9.2,4.6-10.4c1.7-1,3.9-1.1,4.4-1.1c3.1,0,4.7,0.8,5.7,1.5
	c2.3,1.6,4.2,4.6,4.2,10.6C142.8,30.6,139.9,36,133.5,36z M2.3,14.1h21.2l-4.8,4L0,35.9v8.7h36v-9H12.2l4.8-4.3l19-17.2V5.2H2.3
	V14.1z M60.8,3.4c-11.6,0-20.9,9.4-20.9,20.9c0,11.6,9.4,20.9,20.9,20.9c9.2,0,16.9-5.9,19.8-14.1l-12,0.3c-1.4,2.8-3.7,4.5-7.6,4.5
	c-4.4,0-6.7-2.5-7.6-3.9c-0.5-0.8-1.3-2.4-1.7-4.6h29.8c0.2-1.1,0.3-2.1,0.3-3.2c0-1.4-0.1-2.7-0.4-4C79.5,10.6,71,3.4,60.8,3.4z
	 M51.8,20.3c0.8-3.5,2.6-5.6,4.2-6.5c1.7-1,3.9-1.1,4.4-1.1c3.1,0,4.7,0.8,5.7,1.5c1.6,1.1,3,3,3.7,6.1H51.8z M103.4,5.4
	c-2.6,1.1-3.6,2.1-4.6,2.9V4.3H87.5v40.3h11.6c0,0,0-27.6,0-27.7c1.2-1.5,2.2-2.2,3.8-2.8c0,0,3.2-0.9,6.8,0.9
	c1.3-3.6,3.3-6.9,6-9.5C112.6,4.2,106.5,4.2,103.4,5.4z"/>
<path class="st1" d="M148.5,0c-3.4,0-6.1,2.7-6.1,6.1c0,3.4,2.7,6.1,6.1,6.1c3.4,0,6.1-2.7,6.1-6.1C154.6,2.7,151.9,0,148.5,0z
	 M148.5,8.9c-1.5,0-2.8-1.3-2.8-2.8s1.3-2.8,2.8-2.8s2.8,1.3,2.8,2.8S150.1,8.9,148.5,8.9z"/>
</svg>
