<?xml version="1.0" encoding="utf-8"?>
<!-- Generator: Adobe Illustrator 23.0.4, SVG Export Plug-In . SVG Version: 6.00 Build 0)  -->
<svg version="1.1" id="Layer_1" xmlns="http://www.w3.org/2000/svg" xmlns:xlink="http://www.w3.org/1999/xlink" x="0px" y="0px"
	 viewBox="0 0 126.5 135.6" style="enable-background:new 0 0 126.5 135.6;" xml:space="preserve">
<style type="text/css">
	.st0{fill:#FFFFFF;}
	.st1{fill:#EC008C;}
</style>
<path class="st0" d="M118.6,44.5c-3.2,1.3-6.7,2-10.4,2C92.7,46.5,80,33.9,80,18.3c0-1.9,0.2-3.8,0.6-5.6C74.9,11,69,10.1,62.7,10.1
	c-35.6,0-64.3,29.7-62.6,65.7c1.5,32.1,27.6,58.2,59.7,59.7c36,1.7,65.7-27,65.7-62.6C125.5,62.6,123,53,118.6,44.5z M63.2,107.8
	c-13.1,0-19.9-7.5-22.6-11.5c-2.3-3.6-6.1-12.2-6.1-23.8c0-17.4,7.5-27.6,13.8-31.2c5-2.9,11.5-3.4,13.1-3.4c9.3,0,14,2.3,17.2,4.5
	c6.8,4.8,12.5,13.8,12.5,31.7C91.1,91.7,82.5,107.8,63.2,107.8z"/>
<path class="st1" d="M108.2,0C98.1,0,89.9,8.2,89.9,18.3s8.2,18.3,18.3,18.3c10.1,0,18.3-8.2,18.3-18.3S118.3,0,108.2,0z
	 M108.2,26.7c-4.6,0-8.4-3.8-8.4-8.4s3.8-8.4,8.4-8.4s8.4,3.8,8.4,8.4S112.9,26.7,108.2,26.7z"/>
</svg>
