<?xml version="1.0" encoding="utf-8"?>
<!-- Generator: Adobe Illustrator 23.0.4, SVG Export Plug-In . SVG Version: 6.00 Build 0)  -->
<svg version="1.1" id="Layer_1" xmlns="http://www.w3.org/2000/svg" xmlns:xlink="http://www.w3.org/1999/xlink" x="0px" y="0px"
	 viewBox="0 0 125.5 125.5" style="enable-background:new 0 0 125.5 125.5;" xml:space="preserve">
<style type="text/css">
	.st0{fill:#FFFFFF;}
</style>
<path class="st0" d="M125.4,60.1c0-0.1,0-0.2,0-0.3c0-0.1,0-0.2,0-0.3c0-0.8-0.1-1.6-0.2-2.5c0-0.3-0.1-0.6-0.1-0.9
	c-0.1-0.5-0.1-1.1-0.2-1.6c-0.1-0.4-0.1-0.8-0.2-1.1c-0.1-0.6-0.2-1.3-0.3-1.9c-0.1-0.5-0.2-1.1-0.3-1.6c0-0.1-0.1-0.3-0.1-0.4
	c-4.9-22.3-21.8-40.4-43.5-46.9c-0.1,0-0.2-0.1-0.3-0.1c0,0,0,0-0.1,0c-0.8-0.2-1.7-0.5-2.5-0.7c-0.2,0-0.3-0.1-0.5-0.1
	c-0.8-0.2-1.6-0.4-2.4-0.5c-0.1,0-0.2,0-0.3-0.1c-1.8-0.3-3.6-0.6-5.5-0.8c-0.2,0-0.4,0-0.6-0.1c-0.7-0.1-1.4-0.1-2.2-0.2
	c-0.1,0-0.3,0-0.4,0c-0.1,0-0.1,0-0.2,0c-1,0-2-0.1-3-0.1c-0.6,0-1.1,0-1.7,0c-0.5,0-1.1,0-1.6,0c-0.6,0-1.2,0.1-1.8,0.1
	c-0.5,0-1,0.1-1.5,0.1c-0.6,0.1-1.3,0.2-1.9,0.2c-0.4,0.1-0.9,0.1-1.3,0.2c-0.7,0.1-1.3,0.2-1.9,0.4c-0.4,0.1-0.8,0.1-1.2,0.2
	c-0.7,0.1-1.3,0.3-2,0.5c-0.4,0.1-0.7,0.2-1.1,0.3c-0.7,0.2-1.3,0.4-2,0.6c-0.3,0.1-0.7,0.2-1,0.3c-0.7,0.2-1.3,0.5-2,0.7
	c-0.3,0.1-0.7,0.2-1,0.3c-0.7,0.3-1.3,0.5-2,0.8c-0.3,0.1-0.6,0.3-0.9,0.4c-0.6,0.3-1.3,0.6-1.9,0.9c-0.3,0.1-0.6,0.3-0.9,0.4
	c-0.6,0.3-1.2,0.6-1.8,1c-0.3,0.2-0.6,0.3-0.9,0.5c-0.6,0.3-1.2,0.7-1.7,1c-0.3,0.2-0.6,0.4-0.9,0.6c-0.6,0.3-1.1,0.7-1.6,1.1
	c-0.3,0.2-0.6,0.4-1,0.6c-0.5,0.4-1,0.7-1.5,1.1c-0.3,0.2-0.7,0.5-1,0.7c-0.5,0.4-0.9,0.7-1.4,1.1c-0.3,0.3-0.7,0.6-1,0.9
	c-0.4,0.4-0.8,0.7-1.2,1.1c-0.4,0.3-0.7,0.6-1.1,1c-0.4,0.4-0.7,0.7-1.1,1.1c-0.4,0.4-0.7,0.7-1.1,1.1c-0.3,0.3-0.6,0.7-1,1.1
	c-0.4,0.4-0.8,0.8-1.1,1.2c-0.3,0.3-0.6,0.7-0.9,1c-0.4,0.5-0.8,0.9-1.1,1.4c-0.3,0.3-0.5,0.7-0.7,1c-0.4,0.5-0.8,1-1.1,1.5
	c-0.2,0.3-0.4,0.6-0.6,1c-0.4,0.5-0.7,1.1-1.1,1.6c-0.2,0.3-0.4,0.6-0.6,0.9c-0.4,0.6-0.7,1.2-1,1.7c-0.2,0.3-0.3,0.6-0.5,0.9
	c-0.3,0.6-0.7,1.2-1,1.8c-0.2,0.3-0.3,0.6-0.4,0.9c-0.3,0.6-0.6,1.3-0.9,1.9c-0.1,0.3-0.3,0.6-0.4,0.9c-0.3,0.7-0.5,1.3-0.8,2
	c-0.1,0.3-0.2,0.7-0.3,1c-0.2,0.7-0.5,1.3-0.7,2c-0.1,0.3-0.2,0.7-0.3,1c-0.2,0.7-0.4,1.3-0.6,2c-0.1,0.4-0.2,0.7-0.3,1.1
	c-0.2,0.7-0.3,1.3-0.5,2c-0.1,0.4-0.2,0.8-0.2,1.2c-0.1,0.6-0.3,1.3-0.4,1.9c-0.1,0.4-0.1,0.9-0.2,1.3c-0.1,0.6-0.2,1.3-0.2,1.9
	c-0.1,0.5-0.1,1-0.1,1.5c-0.1,0.6-0.1,1.2-0.1,1.8c0,0.5,0,1.1,0,1.6c0,0.6,0,1.1,0,1.7c0,0.1,0,0.1,0,0.2c0,0.9,0,1.8,0.1,2.7
	c0,0.2,0,0.4,0,0.6c0,0.8,0.1,1.6,0.2,2.5c0,0.3,0.1,0.6,0.1,0.9c0.1,0.5,0.1,1.1,0.2,1.6c0.1,0.4,0.1,0.8,0.2,1.1
	C0.8,72.7,0.9,73.3,1,74c0.1,0.5,0.2,1.1,0.3,1.6c0,0.1,0.1,0.3,0.1,0.4c4.9,22.3,21.8,40.4,43.5,46.9c0,0,0,0,0,0
	c0.1,0,0.2,0.1,0.3,0.1c0,0,0,0,0.1,0c0.8,0.2,1.7,0.5,2.5,0.7c0.2,0,0.3,0.1,0.5,0.1c0.8,0.2,1.6,0.4,2.4,0.5c0.1,0,0.2,0,0.3,0.1
	c1.8,0.3,3.6,0.6,5.5,0.8c0.2,0,0.4,0,0.6,0.1c0.7,0.1,1.4,0.1,2.2,0.2c0.2,0,0.4,0,0.7,0c0.9,0,1.9,0.1,2.8,0.1c0.1,0,0.1,0,0.2,0
	c0.6,0,1.1,0,1.7,0c0.5,0,1.1,0,1.6,0c0.6,0,1.2-0.1,1.8-0.1c0.5,0,1-0.1,1.5-0.1c0.6-0.1,1.3-0.2,1.9-0.2c0.4-0.1,0.9-0.1,1.3-0.2
	c0.7-0.1,1.3-0.2,1.9-0.4c0.4-0.1,0.8-0.1,1.2-0.2c0.7-0.1,1.3-0.3,2-0.5c0.4-0.1,0.7-0.2,1.1-0.3c0.7-0.2,1.3-0.4,2-0.6
	c0.3-0.1,0.7-0.2,1-0.3c0.7-0.2,1.3-0.5,2-0.7c0.3-0.1,0.7-0.2,1-0.3c0.7-0.3,1.3-0.5,2-0.8c0.3-0.1,0.6-0.3,0.9-0.4
	c0.6-0.3,1.3-0.6,1.9-0.9c0.3-0.1,0.6-0.3,0.9-0.4c0.6-0.3,1.2-0.6,1.8-1c0.3-0.2,0.6-0.3,0.9-0.5c0.6-0.3,1.2-0.7,1.7-1
	c0.3-0.2,0.6-0.4,0.9-0.6c0.6-0.3,1.1-0.7,1.6-1.1c0.3-0.2,0.6-0.4,1-0.6c0.5-0.4,1-0.7,1.5-1.1c0.3-0.2,0.7-0.5,1-0.7
	c0.5-0.4,0.9-0.7,1.4-1.1c0.3-0.3,0.7-0.6,1-0.9c0.4-0.4,0.8-0.7,1.2-1.1c0.4-0.3,0.7-0.6,1.1-1c0.4-0.4,0.7-0.7,1.1-1.1
	c0.4-0.4,0.7-0.7,1.1-1.1c0.3-0.3,0.6-0.7,1-1.1c0.4-0.4,0.8-0.8,1.1-1.2c0.3-0.3,0.6-0.7,0.9-1c0.4-0.5,0.8-0.9,1.1-1.4
	c0.3-0.3,0.5-0.7,0.7-1c0.4-0.5,0.8-1,1.1-1.5c0.2-0.3,0.4-0.6,0.6-1c0.4-0.5,0.7-1.1,1.1-1.6c0.2-0.3,0.4-0.6,0.6-0.9
	c0.4-0.6,0.7-1.2,1-1.7c0.2-0.3,0.3-0.6,0.5-0.9c0.3-0.6,0.7-1.2,1-1.8c0.2-0.3,0.3-0.6,0.4-0.9c0.3-0.6,0.6-1.3,0.9-1.9
	c0.1-0.3,0.3-0.6,0.4-0.9c0.3-0.7,0.5-1.3,0.8-2c0.1-0.3,0.2-0.7,0.3-1c0.2-0.7,0.5-1.3,0.7-2c0.1-0.3,0.2-0.7,0.3-1
	c0.2-0.7,0.4-1.3,0.6-2c0.1-0.4,0.2-0.7,0.3-1.1c0.2-0.7,0.3-1.3,0.5-2c0.1-0.4,0.2-0.8,0.2-1.2c0.1-0.6,0.3-1.3,0.4-1.9
	c0.1-0.4,0.1-0.9,0.2-1.3c0.1-0.6,0.2-1.3,0.2-1.9c0.1-0.5,0.1-1,0.1-1.5c0-0.6,0.1-1.2,0.1-1.8c0-0.5,0-1.1,0-1.6
	c0-0.6,0-1.1,0-1.7C125.5,62,125.4,61,125.4,60.1z M83.3,88.8c-2,2.5-4.1,4.4-6.1,5.5c-1.8,1.1-3.8,1.8-5.8,2.3c0,0,0,0,0,0
	c-0.1,0-0.2,0.1-0.4,0.1c-3.2,0.8-6,1-7,1c-2.2,0-4.1-0.1-5.8-0.4c-5.6-0.7-8.9-2.5-11.4-4.1c-6.8-4.8-12.5-13.8-12.5-31.7
	c0-9.4,2.5-18.4,7.7-24.8c3-3.6,7-6.4,11.9-7.8c0,0,0,0,0,0c0.1,0,0.3-0.1,0.4-0.1c2.4-0.7,5-1,7.9-1c1.7,0,3.4,0.1,4.9,0.4
	c9.9,1.6,15.4,7.7,17.7,11.1c2.3,3.6,6.1,12.2,6.1,23.8C91,74.9,87.5,83.4,83.3,88.8z"/>
</svg>
