<?xml version="1.0" encoding="utf-8"?>
<!-- Generator: Adobe Illustrator 23.0.4, SVG Export Plug-In . SVG Version: 6.00 Build 0)  -->
<svg version="1.1" id="Layer_1" xmlns="http://www.w3.org/2000/svg" xmlns:xlink="http://www.w3.org/1999/xlink" x="0px" y="0px"
	 viewBox="0 0 484.9 135.5" style="enable-background:new 0 0 484.9 135.5;" xml:space="preserve">
<style type="text/css">
	.st0{fill:none;}
	.st1{fill:#FFFFFF;}
	.st2{fill:#EC008C;}
</style>
<g>
	<g>
		<path class="st0" d="M204,42.4c-3.2-2.3-7.9-4.5-17.2-4.5c-1.6,0-8.2,0.5-13.1,3.4c-4.8,2.7-10.1,9.1-12.5,19.5h54
			C213,51.4,208.8,45.7,204,42.4z"/>
		<path class="st0" d="M421.4,42.4c-3.2-2.3-7.9-4.5-17.2-4.5c-1.6,0-8.2,0.5-13.1,3.4c-6.3,3.6-13.8,13.8-13.8,31.2
			c0,11.5,3.8,20.2,6.1,23.8c2.7,4.1,9.5,11.5,22.6,11.5c19.2,0,27.8-16.1,27.8-33.7C433.9,56.2,428.2,47.1,421.4,42.4z"/>
		<polygon class="st1" points="6.8,42.2 70.4,42.2 55.9,54.2 0,110.7 0,133.7 108,133.7 108,106.7 36.5,106.7 51,93.8 108,37.8 
			108,15.5 6.8,15.5 		"/>
		<path class="st1" d="M477,44.5c-3.2,1.3-6.7,2-10.4,2c-15.5,0-28.2-12.6-28.2-28.2c0-1.9,0.2-3.8,0.6-5.6
			c-5.7-1.7-11.6-2.6-17.9-2.6c-35.6,0-64.3,29.7-62.6,65.7c1.5,32.1,27.6,58.2,59.7,59.7c36,1.7,65.7-27,65.7-62.6
			C483.9,62.6,481.4,53,477,44.5z M421.6,107.8c-13.1,0-19.9-7.5-22.6-11.5c-2.3-3.6-6.1-12.2-6.1-23.8c0-17.4,7.5-27.6,13.8-31.2
			c5-2.9,11.5-3.4,13.1-3.4c9.3,0,14,2.3,17.2,4.5c6.8,4.8,12.5,13.8,12.5,31.7C449.5,91.7,440.9,107.8,421.6,107.8z"/>
		<path class="st1" d="M188.4,10.1c-35,0-63.3,28.6-62.7,63.7c0.5,33.1,27.1,60.3,60.2,61.6c28.5,1.1,53-16.8,61.7-42.1l-35.9,0.8
			c-4.3,8.5-11.2,13.6-22.8,13.6c-13.1,0-19.9-7.5-22.6-11.5c-1.5-2.5-3.8-7.3-5.1-13.8h89.2c0.5-3.2,0.8-6.4,0.8-9.7
			c0-4.1-0.4-8.2-1.2-12.1C244.3,31.9,218.9,10.1,188.4,10.1z M161.4,60.7c2.4-10.4,7.8-16.8,12.5-19.5c5-2.9,11.5-3.4,13.1-3.4
			c9.3,0,14,2.3,17.2,4.5c4.8,3.4,9,9,11.1,18.4H161.4z"/>
		<path class="st1" d="M321.5,16.3c-7.7,3.2-10.9,6.3-13.8,8.8V12.9H274v120.8h34.6c0,0-0.1-82.8,0-82.9c3.6-4.5,6.4-6.6,11.4-8.3
			c0,0,9.6-2.7,20.4,2.8c3.8-10.9,10-20.6,18-28.5C349.2,12.6,331,12.4,321.5,16.3z"/>
	</g>
	<path class="st2" d="M466.6,0c-10.1,0-18.3,8.2-18.3,18.3c0,10.1,8.2,18.3,18.3,18.3c10.1,0,18.3-8.2,18.3-18.3
		C484.9,8.2,476.7,0,466.6,0z M466.6,26.7c-4.6,0-8.4-3.8-8.4-8.4s3.8-8.4,8.4-8.4s8.4,3.8,8.4,8.4S471.3,26.7,466.6,26.7z"/>
</g>
</svg>
